<svg version="1.1" id="Layer_1" xmlns="http://www.w3.org/2000/svg" xmlns:xlink="http://www.w3.org/1999/xlink" x="0px" y="0px"
	 width="100%" viewBox="0 0 562 444" enable-background="new 0 0 562 444" xml:space="preserve">
<path fill="#000000" opacity="1.000000" stroke="none" 
	d="
M304.000000,445.000000 
	C202.666687,445.000000 101.833382,445.000000 1.000054,445.000000 
	C1.000036,297.000061 1.000036,149.000122 1.000018,1.000134 
	C188.333237,1.000089 375.666473,1.000089 562.999756,1.000045 
	C562.999878,148.999863 562.999878,296.999725 562.999939,444.999786 
	C476.833344,445.000000 390.666656,445.000000 304.000000,445.000000 
M398.971863,264.148743 
	C398.911072,263.054657 398.850281,261.960571 398.889984,259.950867 
	C398.846313,235.606430 398.802673,211.261993 398.883545,185.998154 
	C399.213196,175.430893 399.702911,164.865219 399.808655,154.295715 
	C399.866364,148.532089 399.119171,142.764938 399.006927,136.994080 
	C398.803375,126.528908 391.881287,117.511185 381.851013,113.896584 
	C373.623535,110.931656 365.285797,112.353035 356.045776,112.052635 
	C304.586914,112.043373 253.127975,111.986267 201.669327,112.085014 
	C195.193726,112.097443 189.311646,114.760155 184.596771,119.071556 
	C178.574875,124.578125 176.202408,131.938812 175.054871,139.938431 
	C174.317245,140.266068 173.609299,140.719894 172.837311,140.901337 
	C166.779724,142.325073 164.889572,144.535629 165.000183,150.177628 
	C165.086197,154.564301 168.234055,157.919907 173.255081,159.054092 
	C174.188065,159.264832 175.074799,159.680283 176.107193,160.931290 
	C176.036087,178.255493 175.964981,195.579712 175.204803,213.109253 
	C173.910980,213.739792 172.648224,214.446854 171.317719,214.987045 
	C166.700150,216.861801 164.220688,220.596054 165.060654,225.268372 
	C165.848724,229.652069 168.653046,231.983871 173.246933,232.072937 
	C174.150848,232.090469 175.043747,232.676254 176.128967,233.851212 
	C176.053528,251.898529 175.978073,269.945862 175.126724,287.921448 
	C168.017944,289.301971 165.323975,291.683411 165.211960,296.686035 
	C165.095703,301.879150 167.476669,304.241119 174.417755,306.123444 
	C175.363800,306.380005 176.106033,307.388153 177.045883,308.921844 
	C177.654083,312.401093 177.557419,316.209503 179.000259,319.298981 
	C183.664902,329.287140 192.144028,334.261078 202.917191,334.875031 
	C211.054184,335.338715 219.238480,334.984100 227.401703,334.973938 
	C270.215515,334.920685 313.029327,334.861115 356.667419,335.033142 
	C358.089081,334.984406 359.510773,334.935699 361.837585,335.041473 
	C366.773010,334.701080 371.714264,334.428497 376.642670,334.006165 
	C386.881287,333.128815 398.100494,323.009033 398.894226,313.203796 
	C399.653351,303.825684 399.567230,294.379181 399.976776,284.118622 
	C399.682434,281.722260 399.388092,279.325897 399.053894,276.016663 
	C398.993713,272.333893 398.933533,268.651093 398.971863,264.148743 
z"/>
<path fill="#EDEDED" opacity="1.000000" stroke="none" 
	d="
M175.811340,139.977036 
	C176.202408,131.938812 178.574875,124.578125 184.596771,119.071556 
	C189.311646,114.760155 195.193726,112.097443 201.669327,112.085014 
	C253.127975,111.986267 304.586914,112.043373 356.497375,112.527977 
	C356.640015,114.790970 356.064056,116.578377 356.062439,118.366295 
	C356.041992,141.304535 356.103638,164.242828 356.120758,187.637711 
	C356.143829,212.450012 356.190613,236.805725 356.192047,261.617096 
	C356.228180,285.676453 356.309601,309.280121 356.225647,333.178680 
	C355.987915,333.916931 355.915527,334.360352 355.843140,334.803772 
	C313.029327,334.861115 270.215515,334.920685 227.401703,334.973938 
	C219.238480,334.984100 211.054184,335.338715 202.917191,334.875031 
	C192.144028,334.261078 183.664902,329.287140 179.000259,319.298981 
	C177.557419,316.209503 177.654083,312.401093 177.190643,308.119324 
	C178.806519,306.831116 180.266525,305.969940 181.750671,305.926117 
	C187.559982,305.754547 193.402481,306.156128 199.179321,305.687469 
	C201.732651,305.480286 205.036240,304.343842 206.405426,302.466736 
	C207.892426,300.428101 208.725403,296.400146 207.661667,294.399902 
	C206.361389,291.954834 202.936752,289.513611 200.177628,289.182953 
	C192.153656,288.221375 184.003372,288.314026 175.902618,287.993164 
	C175.978073,269.945862 176.053528,251.898529 176.459412,233.413574 
	C178.727097,232.667328 180.659378,232.135681 182.602570,232.092239 
	C188.245773,231.966110 193.894577,232.106583 199.538834,232.007935 
	C204.806473,231.915848 208.980713,228.444839 208.958344,224.369995 
	C208.930283,219.259155 204.824387,215.241943 199.303528,215.152390 
	C193.161087,215.052750 187.009186,215.287277 180.876022,215.029144 
	C179.188477,214.958130 177.553146,213.646362 175.893860,212.903915 
	C175.964981,195.579712 176.036087,178.255493 176.439514,160.305740 
	C178.523209,159.348099 180.268829,158.770172 182.027039,158.728928 
	C187.838348,158.592560 193.666992,158.883728 199.464630,158.566238 
	C205.083954,158.258499 208.782379,154.503769 208.645767,149.945312 
	C208.494400,144.894211 204.709839,141.449615 198.955902,141.290863 
	C195.137756,141.185501 191.305084,141.432495 187.496094,141.217438 
	C183.590286,140.996918 179.705383,140.405899 175.811340,139.977036 
M212.816147,232.860046 
	C213.178925,235.247650 213.541687,237.635239 213.506927,240.314545 
	C213.822906,240.908157 214.138885,241.501785 214.810089,242.748413 
	C215.387177,244.611877 215.964264,246.475357 216.276886,249.006104 
	C216.748413,249.692200 217.219940,250.378296 218.072037,251.672012 
	C232.592453,280.496460 261.036194,296.063812 290.368317,291.239990 
	C328.855194,284.910614 353.365845,251.609070 348.084961,212.822922 
	C343.252869,177.333023 307.075806,150.309433 271.663086,155.884766 
	C244.442337,160.170364 226.072723,175.580582 215.262299,201.045395 
	C215.198639,201.702301 215.134979,202.359192 215.011856,203.806641 
	C214.027863,212.532974 213.043869,221.259323 211.624207,230.271027 
	C211.946106,230.873367 212.267990,231.475708 212.816147,232.860046 
z"/>
<path fill="#979797" opacity="1.000000" stroke="none" 
	d="
M356.237366,261.161438 
	C356.190613,236.805725 356.143829,212.450012 356.571655,187.564621 
	C370.950500,186.995819 384.854736,186.956696 398.759003,186.917557 
	C398.802673,211.261993 398.846313,235.606430 398.542847,260.414459 
	C397.800842,260.905609 397.405945,260.933167 396.544739,260.899902 
	C382.798065,260.946564 369.517731,261.054016 356.237366,261.161438 
z"/>
<path fill="#D0D0D0" opacity="1.000000" stroke="none" 
	d="
M398.821289,186.457855 
	C384.854736,186.956696 370.950500,186.995819 356.595337,187.108032 
	C356.103638,164.242828 356.041992,141.304535 356.062439,118.366295 
	C356.064056,116.578377 356.640015,114.790970 356.960236,112.592857 
	C365.285797,112.353035 373.623535,110.931656 381.851013,113.896584 
	C391.881287,117.511185 398.803375,126.528908 399.006927,136.994080 
	C399.119171,142.764938 399.866364,148.532089 399.808655,154.295715 
	C399.702911,164.865219 399.213196,175.430893 398.821289,186.457855 
z"/>
<path fill="#484848" opacity="1.000000" stroke="none" 
	d="
M356.192047,261.617096 
	C369.517731,261.054016 382.798065,260.946564 396.541382,261.270264 
	C397.627350,262.790375 398.250366,263.879364 398.873352,264.968323 
	C398.933533,268.651093 398.993713,272.333893 398.788696,276.752380 
	C398.966522,279.979614 399.409576,282.471191 399.852631,284.962738 
	C399.567230,294.379181 399.653351,303.825684 398.894226,313.203796 
	C398.100494,323.009033 386.881287,333.128815 376.642670,334.006165 
	C371.714264,334.428497 366.773010,334.701080 361.331055,334.626160 
	C359.346710,333.768494 357.868866,333.326172 356.391022,332.883820 
	C356.309601,309.280121 356.228180,285.676453 356.192047,261.617096 
z"/>
<path fill="#878787" opacity="1.000000" stroke="none" 
	d="
M175.433105,139.957733 
	C179.705383,140.405899 183.590286,140.996918 187.496094,141.217438 
	C191.305084,141.432495 195.137756,141.185501 198.955902,141.290863 
	C204.709839,141.449615 208.494400,144.894211 208.645767,149.945312 
	C208.782379,154.503769 205.083954,158.258499 199.464630,158.566238 
	C193.666992,158.883728 187.838348,158.592560 182.027039,158.728928 
	C180.268829,158.770172 178.523209,159.348099 176.377350,159.840729 
	C175.074799,159.680283 174.188065,159.264832 173.255081,159.054092 
	C168.234055,157.919907 165.086197,154.564301 165.000183,150.177628 
	C164.889572,144.535629 166.779724,142.325073 172.837311,140.901337 
	C173.609299,140.719894 174.317245,140.266068 175.433105,139.957733 
z"/>
<path fill="#878787" opacity="1.000000" stroke="none" 
	d="
M175.549347,213.006592 
	C177.553146,213.646362 179.188477,214.958130 180.876022,215.029144 
	C187.009186,215.287277 193.161087,215.052750 199.303528,215.152390 
	C204.824387,215.241943 208.930283,219.259155 208.958344,224.369995 
	C208.980713,228.444839 204.806473,231.915848 199.538834,232.007935 
	C193.894577,232.106583 188.245773,231.966110 182.602570,232.092239 
	C180.659378,232.135681 178.727097,232.667328 176.365784,232.987946 
	C175.043747,232.676254 174.150848,232.090469 173.246933,232.072937 
	C168.653046,231.983871 165.848724,229.652069 165.060654,225.268372 
	C164.220688,220.596054 166.700150,216.861801 171.317719,214.987045 
	C172.648224,214.446854 173.910980,213.739792 175.549347,213.006592 
z"/>
<path fill="#878787" opacity="1.000000" stroke="none" 
	d="
M175.514679,287.957306 
	C184.003372,288.314026 192.153656,288.221375 200.177628,289.182953 
	C202.936752,289.513611 206.361389,291.954834 207.661667,294.399902 
	C208.725403,296.400146 207.892426,300.428101 206.405426,302.466736 
	C205.036240,304.343842 201.732651,305.480286 199.179321,305.687469 
	C193.402481,306.156128 187.559982,305.754547 181.750671,305.926117 
	C180.266525,305.969940 178.806519,306.831116 177.139023,307.682556 
	C176.106033,307.388153 175.363800,306.380005 174.417755,306.123444 
	C167.476669,304.241119 165.095703,301.879150 165.211960,296.686035 
	C165.323975,291.683411 168.017944,289.301971 175.514679,287.957306 
z"/>
<path fill="#565656" opacity="1.000000" stroke="none" 
	d="
M399.914703,284.540680 
	C399.409576,282.471191 398.966522,279.979614 398.808594,277.208801 
	C399.388092,279.325897 399.682434,281.722260 399.914703,284.540680 
z"/>
<path fill="#737373" opacity="1.000000" stroke="none" 
	d="
M356.225647,333.178680 
	C357.868866,333.326172 359.346710,333.768494 360.878479,334.548920 
	C359.510773,334.935699 358.089081,334.984406 356.255280,334.918457 
	C355.915527,334.360352 355.987915,333.916931 356.225647,333.178680 
z"/>
<path fill="#565656" opacity="1.000000" stroke="none" 
	d="
M398.922607,264.558533 
	C398.250366,263.879364 397.627350,262.790375 397.007721,261.331055 
	C397.405945,260.933167 397.800842,260.905609 398.492615,260.872253 
	C398.850281,261.960571 398.911072,263.054657 398.922607,264.558533 
z"/>
<path fill="#4B4B4B" opacity="1.000000" stroke="none" 
	d="
M215.806732,200.956085 
	C226.072723,175.580582 244.442337,160.170364 271.663086,155.884766 
	C307.075806,150.309433 343.252869,177.333023 348.084961,212.822922 
	C353.365845,251.609070 328.855194,284.910614 290.368317,291.239990 
	C261.036194,296.063812 232.592453,280.496460 217.904816,251.060532 
	C217.338852,249.745636 216.940094,249.042236 216.541351,248.338821 
	C215.964264,246.475357 215.387177,244.611877 214.704376,242.141785 
	C214.367249,241.031067 214.135849,240.526947 213.904449,240.022842 
	C213.541687,237.635239 213.178925,235.247650 212.782990,232.189758 
	C212.519867,231.008194 212.289871,230.496933 212.059875,229.985657 
	C213.043869,221.259323 214.027863,212.532974 215.266144,203.222748 
	C215.615875,202.077942 215.711304,201.517014 215.806732,200.956085 
M250.075882,173.466400 
	C244.504623,178.425079 237.867096,182.600052 233.546646,188.478104 
	C214.823990,213.950531 218.970474,247.997269 242.228745,268.059479 
	C260.794006,284.073608 290.059662,287.183075 310.587463,273.978394 
	C329.808319,261.614441 340.106964,244.139618 339.030243,220.890884 
	C338.044952,199.617050 327.901794,183.387070 309.660248,172.915482 
	C290.267487,161.783035 270.326874,162.236618 250.075882,173.466400 
z"/>
<path fill="#D0D0D0" opacity="1.000000" stroke="none" 
	d="
M213.705688,240.168701 
	C214.135849,240.526947 214.367249,241.031067 214.526764,241.815277 
	C214.138885,241.501785 213.822906,240.908157 213.705688,240.168701 
z"/>
<path fill="#D0D0D0" opacity="1.000000" stroke="none" 
	d="
M216.409119,248.672455 
	C216.940094,249.042236 217.338852,249.745636 217.714539,250.756714 
	C217.219940,250.378296 216.748413,249.692200 216.409119,248.672455 
z"/>
<path fill="#D0D0D0" opacity="1.000000" stroke="none" 
	d="
M211.842041,230.128342 
	C212.289871,230.496933 212.519867,231.008194 212.669861,231.798767 
	C212.267990,231.475708 211.946106,230.873367 211.842041,230.128342 
z"/>
<path fill="#D0D0D0" opacity="1.000000" stroke="none" 
	d="
M215.534515,201.000732 
	C215.711304,201.517014 215.615875,202.077942 215.295868,202.827484 
	C215.134979,202.359192 215.198639,201.702301 215.534515,201.000732 
z"/>
<path fill="#121212" opacity="1.000000" stroke="none" 
	d="
M250.390900,173.277969 
	C270.326874,162.236618 290.267487,161.783035 309.660248,172.915482 
	C327.901794,183.387070 338.044952,199.617050 339.030243,220.890884 
	C340.106964,244.139618 329.808319,261.614441 310.587463,273.978394 
	C290.059662,287.183075 260.794006,284.073608 242.228745,268.059479 
	C218.970474,247.997269 214.823990,213.950531 233.546646,188.478104 
	C237.867096,182.600052 244.504623,178.425079 250.390900,173.277969 
M270.339691,212.839966 
	C264.382751,215.241653 261.519928,219.538986 262.567474,224.506714 
	C263.753082,230.129211 267.940826,232.897324 274.296448,233.155151 
	C276.691620,233.252319 279.024841,234.877335 281.933716,236.021072 
	C280.037079,238.548462 278.974518,239.964371 277.473938,241.963974 
	C289.128632,248.985260 300.542328,255.861374 311.956055,262.737488 
	C312.234680,262.463440 312.513306,262.189362 312.791931,261.915314 
	C305.893921,250.522812 298.995941,239.130295 291.959595,227.509293 
	C289.992889,228.955170 288.566315,230.003983 287.210114,231.001007 
	C283.175385,228.064194 281.497406,220.912216 283.728851,217.488068 
	C286.254120,213.612961 288.845001,215.245773 292.012115,217.965958 
	C295.972473,209.403503 299.735718,201.267242 303.498932,193.130981 
	C303.143677,192.810928 302.788422,192.490875 302.433167,192.170837 
	C294.294495,195.949982 286.155823,199.729141 277.715027,203.648575 
	C279.155548,205.656219 280.179657,207.083527 281.017670,208.251450 
	C279.291992,213.980621 274.849335,212.485626 270.339691,212.839966 
M282.395447,175.987778 
	C283.922546,173.998566 285.449646,172.009354 287.349945,169.534027 
	C282.332092,169.534027 278.380096,169.534027 274.428131,169.534027 
	C274.189789,170.036240 273.951416,170.538452 273.713074,171.040665 
	C276.418976,172.839828 279.124908,174.638992 282.395447,175.987778 
M334.598999,229.239578 
	C334.598999,225.302505 334.598999,221.365417 334.598999,216.297867 
	C331.400604,219.218307 329.162048,221.262299 326.288940,223.885712 
	C329.120514,225.997528 331.532379,227.796326 334.598999,229.239578 
M226.078888,218.509964 
	C226.078888,222.186935 226.078888,225.863907 226.078888,231.006134 
	C229.493469,227.933105 231.711319,225.937119 234.693634,223.253113 
	C231.517609,221.177536 228.950058,219.499588 226.078888,218.509964 
M279.149139,271.475342 
	C277.449646,273.295715 275.750122,275.116058 273.536560,277.487061 
	C278.698517,277.487061 282.644043,277.487061 286.589600,277.487061 
	C286.778564,277.016357 286.967529,276.545654 287.156525,276.074951 
	C284.702087,274.429138 282.247650,272.783295 279.149139,271.475342 
z"/>
<path fill="#7D7D7D" opacity="1.000000" stroke="none" 
	d="
M270.701385,212.735580 
	C274.849335,212.485626 279.291992,213.980621 281.017670,208.251450 
	C280.179657,207.083527 279.155548,205.656219 277.715027,203.648575 
	C286.155823,199.729141 294.294495,195.949982 302.433167,192.170837 
	C302.788422,192.490875 303.143677,192.810928 303.498932,193.130981 
	C299.735718,201.267242 295.972473,209.403503 292.012115,217.965958 
	C288.845001,215.245773 286.254120,213.612961 283.728851,217.488068 
	C281.497406,220.912216 283.175385,228.064194 287.210114,231.001007 
	C288.566315,230.003983 289.992889,228.955170 291.959595,227.509293 
	C298.995941,239.130295 305.893921,250.522812 312.791931,261.915314 
	C312.513306,262.189362 312.234680,262.463440 311.956055,262.737488 
	C300.542328,255.861374 289.128632,248.985260 277.473938,241.963974 
	C278.974518,239.964371 280.037079,238.548462 281.933716,236.021072 
	C279.024841,234.877335 276.691620,233.252319 274.296448,233.155151 
	C267.940826,232.897324 263.753082,230.129211 262.567474,224.506714 
	C261.519928,219.538986 264.382751,215.241653 270.701385,212.735580 
z"/>
<path fill="#3F3F3F" opacity="1.000000" stroke="none" 
	d="
M282.113129,176.212967 
	C279.124908,174.638992 276.418976,172.839828 273.713074,171.040665 
	C273.951416,170.538452 274.189789,170.036240 274.428131,169.534027 
	C278.380096,169.534027 282.332092,169.534027 287.349945,169.534027 
	C285.449646,172.009354 283.922546,173.998566 282.113129,176.212967 
z"/>
<path fill="#404040" opacity="1.000000" stroke="none" 
	d="
M334.271606,229.417358 
	C331.532379,227.796326 329.120514,225.997528 326.288940,223.885712 
	C329.162048,221.262299 331.400604,219.218307 334.598999,216.297867 
	C334.598999,221.365417 334.598999,225.302505 334.271606,229.417358 
z"/>
<path fill="#414141" opacity="1.000000" stroke="none" 
	d="
M226.230698,218.165802 
	C228.950058,219.499588 231.517609,221.177536 234.693634,223.253113 
	C231.711319,225.937119 229.493469,227.933105 226.078888,231.006134 
	C226.078888,225.863907 226.078888,222.186935 226.230698,218.165802 
z"/>
<path fill="#414141" opacity="1.000000" stroke="none" 
	d="
M279.471191,271.306396 
	C282.247650,272.783295 284.702087,274.429138 287.156525,276.074951 
	C286.967529,276.545654 286.778564,277.016357 286.589600,277.487061 
	C282.644043,277.487061 278.698517,277.487061 273.536560,277.487061 
	C275.750122,275.116058 277.449646,273.295715 279.471191,271.306396 
z"/>
</svg>